# xmcd
#
# Track frame offsets:
#  150
#  17185
#  37875
#  54425
#  72300
#  92482
#  111975
#  129204
#  152957
#  168517
#  189082
#
# Disc length: 2586 seconds
#
# Revision: 0
# Processed by: cddbd v1.5.1PL2 Copyright (c) Steve Scherf et al.
# Submitted via: Collectorz.com_Music_Collector 6.11
#
DISCID=860a180b
DTITLE=Ferda Anil Yarkin - Unuttum Sanma
DYEAR=1900
DGENRE=Turkish Pop
TTITLE0=Vay Be
TTITLE1=Yaraliyim
TTITLE2=Arkadas
TTITLE3=Beni De
TTITLE4=Essiz Yalnizlik
TTITLE5=Enstrumantal
TTITLE6=Unuttum Sanma
TTITLE7=Deli Gonlum
TTITLE8=Sen Iyi Ol
TTITLE9=Boyle Mi
TTITLE10=Gunes Kadar
EXTD=
EXTT0=
EXTT1=
EXTT2=
EXTT3=
EXTT4=
EXTT5=
EXTT6=
EXTT7=
EXTT8=
EXTT9=
EXTT10=
PLAYORDER=
